<?xml version="1.0" encoding="UTF-8"?>
<svg width="1000px" height="989px" viewBox="0 0 1000 989" version="1.1" xmlns="http://www.w3.org/2000/svg" xmlns:xlink="http://www.w3.org/1999/xlink">
    <title>curlybraces.square.fill</title>
    <g id="Page-1" stroke="none" stroke-width="1" fill="none" fill-rule="evenodd">
        <g id="curlybraces.square.fill" fill-rule="nonzero">
            <rect id="Rectangle" fill="#000000" opacity="0" x="0" y="0" width="1000" height="988.205459"></rect>
            <path d="M987.131356,167.292369 L987.131356,821.983761 C987.131356,932.441336 931.367233,988.205459 818.768316,988.205459 L168.364756,988.205459 C56.3001448,988.205459 0,932.976672 0,821.983761 L0,167.292369 C0,56.3001448 56.3001448,1.07238698 168.364756,1.07238698 L818.768316,1.07238698 C931.367233,1.07238698 987.131356,56.8365099 987.131356,167.292369 Z M265.415949,322.788481 L265.415949,391.419532 C265.415949,431.099566 255.764123,440.752764 228.418427,447.722422 C181.769765,460.052298 181.769765,528.685065 228.418427,541.018373 C255.764123,548.526798 265.415949,558.176565 265.415949,597.856599 L265.415949,666.489365 C265.415949,752.815659 309.919837,795.711138 384.449874,795.711138 C417.695586,795.711138 436.463216,780.162385 436.463216,757.640543 C436.463216,735.122132 419.84036,720.64405 397.857285,720.64405 C360.322025,720.64405 346.38271,704.556529 346.38271,658.980941 L346.38271,583.378517 C346.38271,540.733547 323.538294,508.10553 285.094336,494.1971 C323.538294,480.635265 346.38271,448.007248 346.38271,405.362278 L346.38271,330.29519 C346.38271,284.718915 360.322025,268.096745 397.857285,268.096745 C419.84036,268.096745 436.463216,254.155714 436.463216,231.635587 C436.463216,209.115461 417.695586,193.029656 384.449874,193.029656 C309.919837,193.029656 265.415949,236.461157 265.415949,322.788481 Z M552.28101,231.635587 C552.28101,254.155714 568.900434,268.096745 590.886941,268.096745 C628.41877,268.096745 642.361516,284.718915 642.361516,330.29519 L642.361516,405.362278 C642.361516,448.007248 665.202501,480.635265 703.647145,494.1971 C665.202501,508.10553 642.361516,540.733547 642.361516,583.378517 L642.361516,658.980941 C642.361516,704.556529 628.41877,720.64405 590.886941,720.64405 C568.900434,720.64405 552.28101,735.122132 552.28101,757.640543 C552.28101,780.162385 571.045208,795.711138 604.290921,795.711138 C678.819242,795.711138 723.324159,752.815659 723.324159,666.489365 L723.324159,597.856599 C723.324159,558.176565 732.977358,548.526798 760.320652,541.018373 C806.970344,529.223832 806.970344,459.516963 760.320652,447.722422 C732.977358,440.752764 723.324159,431.099566 723.324159,391.419532 L723.324159,322.788481 C723.324159,236.461157 678.819242,193.029656 604.290921,193.029656 C571.045208,193.029656 552.28101,209.115461 552.28101,231.635587 Z" id="Shape" fill="#FFFFFF"></path>
        </g>
    </g>
</svg>