<?xml version="1.0" encoding="UTF-8"?>
<svg width="1000px" height="902px" viewBox="0 0 1000 902" version="1.1" xmlns="http://www.w3.org/2000/svg" xmlns:xlink="http://www.w3.org/1999/xlink">
    <title>exclamationmark.triangle</title>
    <g id="Page-1" stroke="none" stroke-width="1" fill="none" fill-rule="evenodd">
        <g id="exclamationmark.triangle" fill-rule="nonzero">
            <rect id="Rectangle" fill="#000000" opacity="0" x="0" y="0" width="1000" height="901.415849"></rect>
            <path d="M128.773434,896.226415 L859.906415,896.226415 C940.093585,896.226415 988.679245,840.567547 988.679245,768.395472 C988.679245,746.227925 982.073962,723.112453 970.282264,702.357736 L604.244528,64.6224906 C579.716226,21.6981132 537.735849,0 494.339623,0 C450.943396,0 408.489057,21.6981132 384.434717,64.6224906 L18.3962264,702.357736 C5.66037736,723.586415 0,746.227925 0,768.395472 C0,840.567547 48.5850566,896.226415 128.773434,896.226415 Z M129.245283,822.170566 C96.2264151,822.170566 76.4150943,796.697358 76.4150943,767.924528 C76.4150943,758.961509 78.3018868,747.640755 83.4904151,737.735849 L449.056604,100.471547 C458.961509,83.0188679 476.887547,75.4716981 494.339623,75.4716981 C511.791698,75.4716981 529.243774,83.0188679 539.151698,100.471547 L904.718491,738.206792 C909.904906,748.111698 912.26566,758.961509 912.26566,767.924528 C912.26566,796.697358 891.507925,822.170566 858.961509,822.170566 L129.245283,822.170566 Z" id="Shape" fill="#FFCC00"></path>
            <path d="M494.339623,578.300377 C516.981132,578.300377 530.188679,565.095849 530.659623,540.564528 L537.264906,291.981283 C537.735849,267.924528 518.867925,250 493.868679,250 C468.395472,250 450.472453,267.452981 450.943396,291.509434 L457.074717,540.564528 C457.54566,564.621887 470.756226,578.300377 494.339623,578.300377 Z M494.339623,731.604528 C521.696604,731.604528 545.283019,709.904906 545.283019,682.547925 C545.283019,654.716981 522.170566,633.491321 494.339623,633.491321 C466.508679,633.491321 443.396226,655.187925 443.396226,682.547925 C443.396226,709.433962 466.982642,731.604528 494.339623,731.604528 Z" id="Shape" fill="#FFCC00"></path>
        </g>
    </g>
</svg>