<?xml version="1.0" encoding="UTF-8"?>
<svg width="400px" height="400px" viewBox="0 0 400 400" version="1.1" xmlns="http://www.w3.org/2000/svg" xmlns:xlink="http://www.w3.org/1999/xlink">
    <title>logo</title>
    <defs>
        <path d="M400,124.576246 C400,119.827719 400,115.078707 399.972767,110.329696 C399.948982,106.329225 399.902865,102.329725 399.794128,98.3311956 C399.559179,89.6161786 399.045104,80.8264049 397.495116,72.2084748 C395.923283,63.4662738 393.356312,55.3298956 389.311196,47.3867207 C385.334526,39.5794676 380.139905,32.4353188 373.941892,26.241652 C367.745336,20.0479852 360.599273,14.856742 352.789136,10.8824847 C344.837739,6.83638286 336.692653,4.2703728 327.940777,2.6990193 C319.321908,1.15145212 310.52974,0.638347189 301.814756,0.402911154 C297.81333,0.294659121 293.811903,0.249028219 289.809505,0.224271028 C285.058084,0.19514492 280.306663,0.197572096 275.555242,0.197572096 L220.386718,0 L179.124888,0 L124.93257,0.197572096 C120.171926,0.197572096 115.411282,0.19514492 110.650637,0.224271028 C106.639987,0.249028219 102.631279,0.294659121 98.6220854,0.402911154 C89.8867131,0.638347189 81.0746427,1.15193755 72.4353864,2.70144648 C63.6718587,4.27231454 55.5146379,6.83735374 47.5525606,10.8805429 C39.7259196,14.8552857 32.5643221,20.0470144 26.3546593,26.241652 C20.1459674,32.4348333 14.941637,39.5775258 10.9576859,47.3833226 C6.90140524,55.3303811 4.3295796,63.4716136 2.75386311,72.2186689 C1.20241829,80.833201 0.688344417,89.6200621 0.451938402,98.3311956 C0.34417221,102.33021 0.297570613,106.32971 0.273298948,110.329696 C0.24417295,115.079193 0,120.978686 0,125.727698 L0,179.16925 L0,220.872982 L0.246600117,275.449968 C0.246600117,280.20529 0.244658383,284.960613 0.273298948,289.715935 C0.297570613,293.721746 0.34417221,297.726586 0.452423835,301.73094 C0.688344417,310.457122 1.20338915,319.259517 2.75629028,327.889098 C4.33152133,336.642949 6.9028615,344.790978 10.9557441,352.744347 C14.9401807,360.562765 20.1454819,367.716137 26.3546593,373.918542 C32.5638367,380.120946 39.7234924,385.318985 47.5486772,389.299068 C55.5156083,393.35051 63.6767131,395.919918 72.4455801,397.493213 C81.0809534,399.043207 89.8901112,399.557283 98.6220854,399.792719 C102.631279,399.900971 106.640473,399.947087 110.651123,399.971359 C115.411767,400 120.171926,400 124.93257,400 L179.61469,400 L220.978947,400 L275.555242,400 C280.306663,400 285.058084,400 289.809505,399.971359 C293.811903,399.947087 297.81333,399.900971 301.814756,399.792719 C310.533138,399.556798 319.328219,399.042236 327.95097,397.491271 C336.697508,395.917976 344.83871,393.349539 352.785738,389.300524 C360.597331,385.320927 367.744851,380.121917 373.941892,373.918542 C380.138934,367.717108 385.33307,360.564707 389.30974,352.747745 C393.357283,344.790492 395.924254,336.63858 397.497058,327.878903 C399.04559,319.252721 399.559179,310.453724 399.794614,301.73094 C399.902865,297.7261 399.948982,293.721261 399.972767,289.715935 C400,284.960613 400,280.20529 400,275.449968 C400,275.449968 400,221.836571 400,220.872982 L400,179.125562 C400,178.413914 400,124.576246 400,124.576246" id="path-1"></path>
        <linearGradient x1="50%" y1="0%" x2="50%" y2="100%" id="linearGradient-3">
            <stop stop-color="#FFFFFF" offset="0%"></stop>
            <stop stop-color="#DEDEDE" offset="100%"></stop>
        </linearGradient>
    </defs>
    <g id="Page-1" stroke="none" stroke-width="1" fill="none" fill-rule="evenodd">
        <g id="logo">
            <g id="Mask">
                <g id="path-1-link" fill="#000000" fill-rule="nonzero">
                    <path d="M400,124.576246 C400,119.827719 400,115.078707 399.972767,110.329696 C399.948982,106.329225 399.902865,102.329725 399.794128,98.3311956 C399.559179,89.6161786 399.045104,80.8264049 397.495116,72.2084748 C395.923283,63.4662738 393.356312,55.3298956 389.311196,47.3867207 C385.334526,39.5794676 380.139905,32.4353188 373.941892,26.241652 C367.745336,20.0479852 360.599273,14.856742 352.789136,10.8824847 C344.837739,6.83638286 336.692653,4.2703728 327.940777,2.6990193 C319.321908,1.15145212 310.52974,0.638347189 301.814756,0.402911154 C297.81333,0.294659121 293.811903,0.249028219 289.809505,0.224271028 C285.058084,0.19514492 280.306663,0.197572096 275.555242,0.197572096 L220.386718,0 L179.124888,0 L124.93257,0.197572096 C120.171926,0.197572096 115.411282,0.19514492 110.650637,0.224271028 C106.639987,0.249028219 102.631279,0.294659121 98.6220854,0.402911154 C89.8867131,0.638347189 81.0746427,1.15193755 72.4353864,2.70144648 C63.6718587,4.27231454 55.5146379,6.83735374 47.5525606,10.8805429 C39.7259196,14.8552857 32.5643221,20.0470144 26.3546593,26.241652 C20.1459674,32.4348333 14.941637,39.5775258 10.9576859,47.3833226 C6.90140524,55.3303811 4.3295796,63.4716136 2.75386311,72.2186689 C1.20241829,80.833201 0.688344417,89.6200621 0.451938402,98.3311956 C0.34417221,102.33021 0.297570613,106.32971 0.273298948,110.329696 C0.24417295,115.079193 0,120.978686 0,125.727698 L0,179.16925 L0,220.872982 L0.246600117,275.449968 C0.246600117,280.20529 0.244658383,284.960613 0.273298948,289.715935 C0.297570613,293.721746 0.34417221,297.726586 0.452423835,301.73094 C0.688344417,310.457122 1.20338915,319.259517 2.75629028,327.889098 C4.33152133,336.642949 6.9028615,344.790978 10.9557441,352.744347 C14.9401807,360.562765 20.1454819,367.716137 26.3546593,373.918542 C32.5638367,380.120946 39.7234924,385.318985 47.5486772,389.299068 C55.5156083,393.35051 63.6767131,395.919918 72.4455801,397.493213 C81.0809534,399.043207 89.8901112,399.557283 98.6220854,399.792719 C102.631279,399.900971 106.640473,399.947087 110.651123,399.971359 C115.411767,400 120.171926,400 124.93257,400 L179.61469,400 L220.978947,400 L275.555242,400 C280.306663,400 285.058084,400 289.809505,399.971359 C293.811903,399.947087 297.81333,399.900971 301.814756,399.792719 C310.533138,399.556798 319.328219,399.042236 327.95097,397.491271 C336.697508,395.917976 344.83871,393.349539 352.785738,389.300524 C360.597331,385.320927 367.744851,380.121917 373.941892,373.918542 C380.138934,367.717108 385.33307,360.564707 389.30974,352.747745 C393.357283,344.790492 395.924254,336.63858 397.497058,327.878903 C399.04559,319.252721 399.559179,310.453724 399.794614,301.73094 C399.902865,297.7261 399.948982,293.721261 399.972767,289.715935 C400,284.960613 400,280.20529 400,275.449968 C400,275.449968 400,221.836571 400,220.872982 L400,179.125562 C400,178.413914 400,124.576246 400,124.576246" id="path-1"></path>
                </g>
                <g id="path-1-link" fill="#FFFFFF">
                    <path d="M400,124.576246 C400,119.827719 400,115.078707 399.972767,110.329696 C399.948982,106.329225 399.902865,102.329725 399.794128,98.3311956 C399.559179,89.6161786 399.045104,80.8264049 397.495116,72.2084748 C395.923283,63.4662738 393.356312,55.3298956 389.311196,47.3867207 C385.334526,39.5794676 380.139905,32.4353188 373.941892,26.241652 C367.745336,20.0479852 360.599273,14.856742 352.789136,10.8824847 C344.837739,6.83638286 336.692653,4.2703728 327.940777,2.6990193 C319.321908,1.15145212 310.52974,0.638347189 301.814756,0.402911154 C297.81333,0.294659121 293.811903,0.249028219 289.809505,0.224271028 C285.058084,0.19514492 280.306663,0.197572096 275.555242,0.197572096 L220.386718,0 L179.124888,0 L124.93257,0.197572096 C120.171926,0.197572096 115.411282,0.19514492 110.650637,0.224271028 C106.639987,0.249028219 102.631279,0.294659121 98.6220854,0.402911154 C89.8867131,0.638347189 81.0746427,1.15193755 72.4353864,2.70144648 C63.6718587,4.27231454 55.5146379,6.83735374 47.5525606,10.8805429 C39.7259196,14.8552857 32.5643221,20.0470144 26.3546593,26.241652 C20.1459674,32.4348333 14.941637,39.5775258 10.9576859,47.3833226 C6.90140524,55.3303811 4.3295796,63.4716136 2.75386311,72.2186689 C1.20241829,80.833201 0.688344417,89.6200621 0.451938402,98.3311956 C0.34417221,102.33021 0.297570613,106.32971 0.273298948,110.329696 C0.24417295,115.079193 0,120.978686 0,125.727698 L0,179.16925 L0,220.872982 L0.246600117,275.449968 C0.246600117,280.20529 0.244658383,284.960613 0.273298948,289.715935 C0.297570613,293.721746 0.34417221,297.726586 0.452423835,301.73094 C0.688344417,310.457122 1.20338915,319.259517 2.75629028,327.889098 C4.33152133,336.642949 6.9028615,344.790978 10.9557441,352.744347 C14.9401807,360.562765 20.1454819,367.716137 26.3546593,373.918542 C32.5638367,380.120946 39.7234924,385.318985 47.5486772,389.299068 C55.5156083,393.35051 63.6767131,395.919918 72.4455801,397.493213 C81.0809534,399.043207 89.8901112,399.557283 98.6220854,399.792719 C102.631279,399.900971 106.640473,399.947087 110.651123,399.971359 C115.411767,400 120.171926,400 124.93257,400 L179.61469,400 L220.978947,400 L275.555242,400 C280.306663,400 285.058084,400 289.809505,399.971359 C293.811903,399.947087 297.81333,399.900971 301.814756,399.792719 C310.533138,399.556798 319.328219,399.042236 327.95097,397.491271 C336.697508,395.917976 344.83871,393.349539 352.785738,389.300524 C360.597331,385.320927 367.744851,380.121917 373.941892,373.918542 C380.138934,367.717108 385.33307,360.564707 389.30974,352.747745 C393.357283,344.790492 395.924254,336.63858 397.497058,327.878903 C399.04559,319.252721 399.559179,310.453724 399.794614,301.73094 C399.902865,297.7261 399.948982,293.721261 399.972767,289.715935 C400,284.960613 400,280.20529 400,275.449968 C400,275.449968 400,221.836571 400,220.872982 L400,179.125562 C400,178.413914 400,124.576246 400,124.576246" id="path-1"></path>
                </g>
            </g>
            <g id="Icon-Center-Image-Artwork-Clipped">
                <mask id="mask-2" fill="white">
                    <use xlink:href="#path-1"></use>
                </mask>
                <g id="path-1"></g>
                <g id="Icon-Center-Image-Artwork" mask="url(#mask-2)" fill-rule="nonzero">
                    <g id="Group">
                        <rect id="Rectangle" fill="url(#linearGradient-3)" x="0" y="0" width="400" height="400"></rect>
                        <path d="M299.029126,272.087379 C299.029126,285.122848 292.127138,291.510782 279.271735,291.736711 L279.271735,291.747573 L121.213701,291.747573 L121.213701,291.736711 C108.358299,291.510782 101.456311,285.122848 101.456311,272.087379 C101.456311,259.05191 108.358299,252.663976 121.213701,252.438047 L121.213701,252.427184 L279.271735,252.427184 L279.271735,252.438047 C292.127138,252.663976 299.029126,259.05191 299.029126,272.087379 L299.029126,272.087379 Z M279.271735,301.952609 L279.271735,301.941748 L121.213701,301.941748 L121.213701,301.952609 C108.358299,302.178533 101.456311,308.567376 101.456311,321.602485 C101.456311,334.637594 108.358299,341.025351 121.213701,341.251274 L121.213701,341.262136 L279.271735,341.262136 L279.271735,341.251274 C292.126047,341.025351 299.029126,334.637594 299.029126,321.602485 C299.029126,308.567376 292.127138,302.178533 279.271735,301.952609 L279.271735,301.952609 Z M328.544783,193.214792 L328.544783,193.203883 C315.657866,193.430778 308.737864,199.845992 308.737864,212.93713 L308.737864,321.52889 C308.737864,334.620028 315.656772,341.035242 328.544783,341.262136 L328.544783,341.239228 C347.874613,340.559637 358.252427,321.313995 358.252427,282.039489 L358.252427,232.681284 C358.253521,206.499008 347.874613,193.66858 328.544783,193.214792 L328.544783,193.214792 Z M71.9424044,193.203883 L71.9424044,193.214792 C52.6110539,193.668577 42.2330097,206.497819 42.2330097,232.680994 L42.2330097,282.039926 C42.2330097,321.314142 52.6110539,340.558551 71.9424044,341.239229 L71.9424044,341.262136 C84.8296063,341.035243 91.7475728,334.620077 91.7475728,321.529035 L91.7475728,212.936984 C91.7475728,199.845943 84.8296063,193.430776 71.9424044,193.203883 L71.9424044,193.203883 Z M328.640777,183.406884 C328.640777,150.634788 311.388471,134.575883 279.256488,134.00789 L279.256488,133.980583 L121.227857,133.980583 L121.227857,134.00789 C89.0958743,134.575883 71.8446602,150.634788 71.8446602,183.406884 L71.8446602,183.423269 C91.1236316,183.764065 101.474142,193.399189 101.474142,213.062666 C101.474142,232.725049 111.825744,242.361267 131.104715,242.702062 L131.104715,242.718447 L269.379631,242.718447 L269.379631,242.702062 C288.659693,242.361267 299.010204,232.725049 299.010204,213.062666 C299.010204,193.399189 309.360714,183.764065 328.640777,183.423269 L328.640777,183.406884 Z" id="CouchDB" fill="#E42528"></path>
                        <g id="Vapor" transform="translate(113.5922, 31.5534)">
                            <polygon id="Path" fill="#141416" points="0 72.6568417 84.3745422 0 172.815534 72.6568417 172.815534 73.1756369 86.407966 142.718447 0 73.1756369"></polygon>
                            <path d="M86.794667,142.539723 L87.3050859,142.539723 C87.3050859,142.539723 87.4705845,155.556517 87.3050859,161.791726 C87.1395879,168.027333 86.794667,161.791726 86.794667,161.791726 L0,92.0675369 L0,72.815534 L86.794667,142.539723 Z" id="Path" fill="#40C4FF"></path>
                            <polygon id="Path" fill="#3DC4FF" points="86.8677917 161.255734 87.3786408 161.255734 87.3786408 180.059984 86.8677917 180.582524 0 110.588926 0 91.2621359"></polygon>
                            <polygon id="Path" fill-opacity="0.25" fill="#FFFFFF" points="86.8677917 161.255734 87.3786408 161.255734 87.3786408 180.059984 86.8677917 180.582524 0 110.588926 0 91.2621359"></polygon>
                            <polygon id="Path" fill="#3DC4FF" points="86.8677917 180.246694 87.3786408 179.723717 87.3786408 198.021112 86.8677917 198.543689 0 128.49157 0 110.194175"></polygon>
                            <polygon id="Path" fill-opacity="0.5" fill="#FFFFFF" points="86.8677917 180.246694 87.3786408 179.723717 87.3786408 198.021112 86.8677917 198.543689 0 128.49157 0 110.194175"></polygon>
                            <polygon id="Path" fill="#E040FB" points="86.407767 142.809445 86.407767 162.135922 173.300971 92.1420112 173.300971 72.815534"></polygon>
                            <polygon id="Path" fill="#E040FB" points="86.407767 161.255734 86.407767 180.582524 173.300971 110.588926 173.300971 91.2621359"></polygon>
                            <polygon id="Path" fill-opacity="0.25" fill="#FFFFFF" points="86.407767 161.255734 86.407767 180.582524 173.300971 110.588926 173.300971 91.2621359"></polygon>
                            <polygon id="Path" fill="#E040FB" points="86.407767 180.246694 86.407767 198.543689 173.300971 129.014547 173.300971 110.194175"></polygon>
                            <polygon id="Path" fill-opacity="0.5" fill="#FFFFFF" points="86.407767 180.246694 86.407767 198.543689 173.300971 129.014547 173.300971 110.194175"></polygon>
                            <path d="M57.7669903,46.1165049 C57.7669903,46.1165049 98.7418869,47.4155626 109.634823,56.7210908 C120.528159,66.0270175 122.071961,82.4115728 113.0833,93.3175976 C104.09464,104.223622 87.977634,105.520686 77.0842981,96.2151583 C66.1913621,86.9092316 57.7669903,46.1165049 57.7669903,46.1165049 Z" id="Path" fill="#FFFFFF"></path>
                        </g>
                    </g>
                </g>
            </g>
        </g>
    </g>
</svg>