<?xml version="1.0" encoding="UTF-8"?>
<svg width="1000px" height="561px" viewBox="0 0 1000 561" version="1.1" xmlns="http://www.w3.org/2000/svg" xmlns:xlink="http://www.w3.org/1999/xlink">
    <title>macbook</title>
    <g id="Page-1" stroke="none" stroke-width="1" fill="none" fill-rule="evenodd">
        <g id="macbook" fill="#000000" fill-rule="nonzero">
            <rect id="Rectangle" opacity="0" x="0" y="0" width="1000" height="560.178267"></rect>
            <path d="M169.532215,481.773865 L169.532215,89.0647593 C169.532215,67.0565062 180.536341,56.0523796 202.544594,56.0523796 L789.202751,56.0523796 C811.211004,56.0523796 822.215131,67.0565062 822.215131,89.0647593 L822.215131,481.773865 L169.532215,481.773865 Z" id="Path" fill-opacity="0.2125"></path>
            <path d="M392.022008,56.0523796 L400.618432,56.0523796 C405.777166,56.0523796 408.528198,58.4594223 408.528198,64.3054746 L408.528198,68.088033 C408.528198,82.5309491 418.156809,92.1595598 432.598624,92.1595598 L559.834938,92.1595598 C573.933425,92.1595598 582.875378,82.5309491 582.875378,68.088033 L582.875378,64.3054746 C582.875378,58.4594223 585.62641,56.0523796 591.471802,56.0523796 L600.068226,56.0523796 L600.068226,27.5103164 L392.022008,27.5103164 L392.022008,56.0523796 Z M0,520.977166 C0,542.63989 17.5378267,560.178267 38.8582118,560.178267 L952.889133,560.178267 C974.208528,560.178267 991.746905,542.63989 991.746905,520.977166 C991.746905,499.312242 974.208528,481.773865 952.889133,481.773865 L877.579092,481.773865 L877.579092,73.5900963 C877.579092,25.4470426 851.78762,0.687757909 803.987895,0.687757909 L187.757909,0.687757909 C142.365887,0.687757909 114.167813,25.4470426 114.167813,73.5900963 L114.167813,481.773865 L38.8582118,481.773865 C17.5378267,481.773865 0,499.312242 0,520.977166 Z M169.532215,481.773865 L169.532215,89.0647593 C169.532215,67.0565062 180.536341,56.0523796 202.544594,56.0523796 L789.202751,56.0523796 C811.211004,56.0523796 822.215131,67.0565062 822.215131,89.0647593 L822.215131,481.773865 L169.532215,481.773865 Z" id="Shape" fill-opacity="0.85"></path>
        </g>
    </g>
</svg>