<?xml version="1.0" encoding="UTF-8"?>
<svg width="1000px" height="888px" viewBox="0 0 1000 888" version="1.1" xmlns="http://www.w3.org/2000/svg" xmlns:xlink="http://www.w3.org/1999/xlink">
    <title>swift</title>
    <g id="Page-1" stroke="none" stroke-width="1" fill="none" fill-rule="evenodd">
        <g id="swift" fill="#000000" fill-rule="nonzero">
            <rect id="Rectangle" opacity="0" x="0" y="0" width="1000" height="887.154879"></rect>
            <path d="M0,566.460755 C74.9332024,688.671813 270.294766,876.898308 533.898353,876.898308 C701.605997,876.898308 747.993217,798.842175 845.229396,798.842175 C926.405604,798.842175 958.519834,853.256526 971.008701,874.666012 C974.576949,881.35719 980.822809,885.816073 984.391057,872.881888 C986.620498,863.515951 989.295257,851.027084 989.295257,835.860604 C989.295257,793.041631 975.915755,711.420106 904.5508,621.76574 C920.162598,578.056133 921.946722,529.439471 921.946722,500.893489 C921.946722,371.097764 848.797643,145.406095 607.047432,0 C657.448218,70.9190664 724.799607,179.304449 724.799607,329.169426 C724.799607,383.586631 710.081299,443.353354 698.037749,473.238142 C566.460755,396.966133 314.896435,187.333006 214.540752,80.285574 C295.273927,204.282183 390.723127,316.683414 496.87707,434.435589 C354.14716,343.890589 221.231359,243.086734 97.6809244,132.471054 C216.324876,304.639864 366.19071,474.131631 564.228459,634.257462 C507.581813,665.92352 449.599214,690.455936 349.688278,690.455936 C228.813743,690.455936 80.7314622,632.025166 0,566.460755 Z" id="Path"></path>
        </g>
    </g>
</svg>