<?xml version="1.0" encoding="UTF-8"?>
<svg width="1000px" height="1146px" viewBox="0 0 1000 1146" version="1.1" xmlns="http://www.w3.org/2000/svg" xmlns:xlink="http://www.w3.org/1999/xlink">
    <title>Vapor</title>
    <g id="Symbols" stroke="none" stroke-width="1" fill="none" fill-rule="evenodd">
        <g id="Icon-Center-Image-Artwork" transform="translate(-234, -65)">
            <g id="Vapor" transform="translate(234, 65)">
                <polygon id="Path" fill="#141416" points="0 419.252365 486.867107 0 997.19888 419.252365 997.19888 422.245971 498.600589 823.529412 0 422.245971"></polygon>
                <path d="M500.831973,822.498124 L503.777247,822.498124 C503.777247,822.498124 504.732223,897.609035 503.777247,933.588111 C502.822271,969.569483 500.831973,933.588111 500.831973,933.588111 L0,531.258055 L0,420.168067 L500.831973,822.498124 Z" id="Path" fill="#40C4FF"></path>
                <polygon id="Path" fill="#3DC4FF" points="501.253926 930.495273 504.201681 930.495273 504.201681 1039.00159 501.253926 1042.01681 0 638.132178 0 526.610644"></polygon>
                <polygon id="Path" fill-opacity="0.25" fill="#FFFFFF" points="501.253926 930.495273 504.201681 930.495273 504.201681 1039.00159 501.253926 1042.01681 0 638.132178 0 526.610644"></polygon>
                <polygon id="Path" fill="#3DC4FF" points="501.253926 1040.07896 504.201681 1037.06122 504.201681 1142.64283 501.253926 1145.65826 0 741.43595 0 635.854342"></polygon>
                <polygon id="Path" fill-opacity="0.5" fill="#FFFFFF" points="501.253926 1040.07896 504.201681 1037.06122 504.201681 1142.64283 501.253926 1145.65826 0 741.43595 0 635.854342"></polygon>
                <polygon id="Path" fill="#E040FB" points="498.59944 824.054501 498.59944 935.57423 1000 531.687796 1000 420.168067"></polygon>
                <polygon id="Path" fill="#E040FB" points="498.59944 930.495273 498.59944 1042.01681 1000 638.132178 1000 526.610644"></polygon>
                <polygon id="Path" fill-opacity="0.25" fill="#FFFFFF" points="498.59944 930.495273 498.59944 1042.01681 1000 638.132178 1000 526.610644"></polygon>
                <polygon id="Path" fill="#E040FB" points="498.59944 1040.07896 498.59944 1145.65826 1000 744.453687 1000 635.854342"></polygon>
                <polygon id="Path" fill-opacity="0.5" fill="#FFFFFF" points="498.59944 1040.07896 498.59944 1145.65826 1000 744.453687 1000 635.854342"></polygon>
                <path d="M333.333333,266.106443 C333.333333,266.106443 569.771112,273.602406 632.626711,327.29817 C695.484616,380.996235 704.392829,475.540168 652.525488,538.47129 C600.658146,601.402413 507.658057,608.886872 444.800152,555.191109 C381.944553,501.493044 333.333333,266.106443 333.333333,266.106443 Z" id="Path" fill="#FFFFFF" fill-rule="nonzero"></path>
            </g>
        </g>
    </g>
</svg>